<svg width="40" height="40" viewBox="0 0 40 40" fill="none" xmlns="http://www.w3.org/2000/svg">
<path d="M26.6669 37.9166H13.3336C5.63355 37.9166 4.20022 34.3333 3.83355 30.8499L2.58355 17.4999C2.40022 15.7499 2.35022 13.1666 4.08355 11.2333C5.58355 9.5666 8.06688 8.7666 11.6669 8.7666H28.3336C31.9502 8.7666 34.4335 9.58327 35.9169 11.2333C37.6502 13.1666 37.6002 15.7499 37.4169 17.5166L36.1669 30.8333C35.8002 34.3333 34.3669 37.9166 26.6669 37.9166ZM11.6669 11.2499C8.85022 11.2499 6.91688 11.7999 5.93355 12.8999C5.11688 13.7999 4.85022 15.1833 5.06688 17.2499L6.31688 30.5999C6.60022 33.2333 7.31688 35.4166 13.3336 35.4166H26.6669C32.6669 35.4166 33.4002 33.2333 33.6835 30.5833L34.9335 17.2666C35.1502 15.1833 34.8836 13.7999 34.0669 12.8999C33.0836 11.7999 31.1502 11.2499 28.3336 11.2499H11.6669Z" fill="#4864E1"/>
<path d="M26.6668 11.2502C25.9835 11.2502 25.4168 10.6835 25.4168 10.0002V8.66683C25.4168 5.70016 25.4168 4.5835 21.3335 4.5835H18.6668C14.5835 4.5835 14.5835 5.70016 14.5835 8.66683V10.0002C14.5835 10.6835 14.0168 11.2502 13.3335 11.2502C12.6502 11.2502 12.0835 10.6835 12.0835 10.0002V8.66683C12.0835 5.7335 12.0835 2.0835 18.6668 2.0835H21.3335C27.9168 2.0835 27.9168 5.7335 27.9168 8.66683V10.0002C27.9168 10.6835 27.3502 11.2502 26.6668 11.2502Z" fill="#4864E1"/>
<path d="M19.9998 27.9167C15.4165 27.9167 15.4165 25.0833 15.4165 23.3833V21.6667C15.4165 19.3167 15.9832 18.75 18.3332 18.75H21.6665C24.0165 18.75 24.5832 19.3167 24.5832 21.6667V23.3333C24.5832 25.0667 24.5832 27.9167 19.9998 27.9167ZM17.9165 21.25C17.9165 21.3833 17.9165 21.5333 17.9165 21.6667V23.3833C17.9165 25.1 17.9165 25.4167 19.9998 25.4167C22.0832 25.4167 22.0832 25.15 22.0832 23.3667V21.6667C22.0832 21.5333 22.0832 21.3833 22.0832 21.25C21.9498 21.25 21.7998 21.25 21.6665 21.25H18.3332C18.1998 21.25 18.0498 21.25 17.9165 21.25Z" fill="#4864E1"/>
<path d="M23.3335 24.6167C22.7168 24.6167 22.1668 24.1501 22.1002 23.5167C22.0168 22.8334 22.5002 22.2001 23.1835 22.1167C27.5835 21.5667 31.8002 19.9001 35.3502 17.3167C35.9002 16.9001 36.6835 17.0334 37.1002 17.6001C37.5002 18.1501 37.3835 18.9334 36.8168 19.3501C32.9168 22.1834 28.3168 24.0001 23.4835 24.6167C23.4335 24.6167 23.3835 24.6167 23.3335 24.6167Z" fill="#4864E1"/>
<path d="M16.6669 24.6333C16.6169 24.6333 16.5669 24.6333 16.5169 24.6333C11.9502 24.1167 7.50023 22.45 3.65023 19.8167C3.08356 19.4333 2.93356 18.65 3.31689 18.0833C3.70023 17.5167 4.48356 17.3667 5.05023 17.75C8.56689 20.15 12.6169 21.6667 16.7836 22.15C17.4669 22.2333 17.9669 22.85 17.8836 23.5333C17.8336 24.1667 17.3002 24.6333 16.6669 24.6333Z" fill="#4864E1"/>
</svg>
