<svg width="40" height="40" viewBox="0 0 40 40" fill="none" xmlns="http://www.w3.org/2000/svg">
<path d="M25.0002 37.9168H15.0002C5.95016 37.9168 2.0835 34.0502 2.0835 25.0002V15.0002C2.0835 5.95016 5.95016 2.0835 15.0002 2.0835H25.0002C34.0502 2.0835 37.9168 5.95016 37.9168 15.0002V25.0002C37.9168 34.0502 34.0502 37.9168 25.0002 37.9168ZM15.0002 4.5835C7.31683 4.5835 4.5835 7.31683 4.5835 15.0002V25.0002C4.5835 32.6835 7.31683 35.4168 15.0002 35.4168H25.0002C32.6835 35.4168 35.4168 32.6835 35.4168 25.0002V15.0002C35.4168 7.31683 32.6835 4.5835 25.0002 4.5835H15.0002Z" fill="#4864E1"/>
<path d="M25.8333 32.0832C23.3 32.0832 21.25 30.0332 21.25 27.4998V12.4998C21.25 9.9665 23.3 7.9165 25.8333 7.9165C28.3667 7.9165 30.4167 9.9665 30.4167 12.4998V27.4998C30.4167 30.0332 28.3667 32.0832 25.8333 32.0832ZM25.8333 10.4165C24.6833 10.4165 23.75 11.3498 23.75 12.4998V27.4998C23.75 28.6498 24.6833 29.5832 25.8333 29.5832C26.9833 29.5832 27.9167 28.6498 27.9167 27.4998V12.4998C27.9167 11.3498 26.9833 10.4165 25.8333 10.4165Z" fill="#4864E1"/>
<path d="M14.1668 32.0835C11.6335 32.0835 9.5835 30.0335 9.5835 27.5002V21.6668C9.5835 19.1335 11.6335 17.0835 14.1668 17.0835C16.7002 17.0835 18.7502 19.1335 18.7502 21.6668V27.5002C18.7502 30.0335 16.7002 32.0835 14.1668 32.0835ZM14.1668 19.5835C13.0168 19.5835 12.0835 20.5168 12.0835 21.6668V27.5002C12.0835 28.6502 13.0168 29.5835 14.1668 29.5835C15.3168 29.5835 16.2502 28.6502 16.2502 27.5002V21.6668C16.2502 20.5168 15.3168 19.5835 14.1668 19.5835Z" fill="#4864E1"/>
</svg>
