<svg width="40" height="40" viewBox="0 0 40 40" fill="none" xmlns="http://www.w3.org/2000/svg">
<path d="M27.1331 36.8332H20.7998C19.8664 36.8332 17.8331 36.5498 16.7498 35.4665L11.6998 31.5665L13.2331 29.5832L18.3998 33.5832C18.8164 33.9832 19.8664 34.3165 20.7998 34.3165H27.1331C28.6331 34.3165 30.2498 33.1165 30.5831 31.7665L34.6164 19.5165C34.8831 18.7832 34.8331 18.1165 34.4831 17.6332C34.1164 17.1165 33.4498 16.8165 32.6331 16.8165H25.9664C25.0998 16.8165 24.2998 16.4498 23.7498 15.8165C23.1831 15.1665 22.9331 14.2998 23.0664 13.3998L23.8998 8.04982C24.0998 7.11649 23.4664 6.06649 22.5664 5.76649C21.7498 5.46649 20.6998 5.89982 20.3331 6.43315L13.4998 16.5998L11.4331 15.2165L18.2664 5.04982C19.3164 3.48315 21.6164 2.73315 23.4164 3.41649C25.4998 4.09982 26.8331 6.39982 26.3664 8.53315L25.5498 13.7832C25.5331 13.8998 25.5331 14.0665 25.6498 14.1998C25.7331 14.2832 25.8498 14.3332 25.9831 14.3332H32.6498C34.2831 14.3332 35.6998 15.0165 36.5331 16.1998C37.3498 17.3498 37.5164 18.8665 36.9831 20.3332L32.9998 32.4665C32.3831 34.8832 29.8164 36.8332 27.1331 36.8332Z" fill="#4864E1"/>
<path d="M8.9668 35.0002H7.30013C4.2168 35.0002 2.7168 33.5502 2.7168 30.5835V14.2502C2.7168 11.2835 4.2168 9.8335 7.30013 9.8335H8.9668C12.0501 9.8335 13.5501 11.2835 13.5501 14.2502V30.5835C13.5501 33.5502 12.0501 35.0002 8.9668 35.0002ZM7.30013 12.3335C5.48346 12.3335 5.2168 12.7668 5.2168 14.2502V30.5835C5.2168 32.0668 5.48346 32.5002 7.30013 32.5002H8.9668C10.7835 32.5002 11.0501 32.0668 11.0501 30.5835V14.2502C11.0501 12.7668 10.7835 12.3335 8.9668 12.3335H7.30013Z" fill="#4864E1"/>
</svg>
