<svg width="48" height="48" viewBox="0 0 48 48" fill="none" xmlns="http://www.w3.org/2000/svg">
<path d="M32.38 4H15.62C8.34 4 4 8.34 4 15.62V32.36C4 39.66 8.34 44 15.62 44H32.36C39.64 44 43.98 39.66 43.98 32.38V15.62C44 8.34 39.66 4 32.38 4ZM15.26 36.3C15.26 37.12 14.58 37.8 13.76 37.8C12.94 37.8 12.26 37.12 12.26 36.3V32.16C12.26 31.34 12.94 30.66 13.76 30.66C14.58 30.66 15.26 31.34 15.26 32.16V36.3ZM25.5 36.3C25.5 37.12 24.82 37.8 24 37.8C23.18 37.8 22.5 37.12 22.5 36.3V28C22.5 27.18 23.18 26.5 24 26.5C24.82 26.5 25.5 27.18 25.5 28V36.3ZM35.74 36.3C35.74 37.12 35.06 37.8 34.24 37.8C33.42 37.8 32.74 37.12 32.74 36.3V23.86C32.74 23.04 33.42 22.36 34.24 22.36C35.06 22.36 35.74 23.04 35.74 23.86V36.3ZM35.74 17.54C35.74 18.36 35.06 19.04 34.24 19.04C33.42 19.04 32.74 18.36 32.74 17.54V15.6C27.64 20.84 21.26 24.54 14.12 26.32C14 26.36 13.88 26.36 13.76 26.36C13.08 26.36 12.48 25.9 12.3 25.22C12.1 24.42 12.58 23.6 13.4 23.4C20.14 21.72 26.14 18.18 30.9 13.18H28.4C27.58 13.18 26.9 12.5 26.9 11.68C26.9 10.86 27.58 10.18 28.4 10.18H34.26C34.34 10.18 34.4 10.22 34.48 10.22C34.58 10.24 34.68 10.24 34.78 10.28C34.88 10.32 34.96 10.38 35.06 10.44C35.12 10.48 35.18 10.5 35.24 10.54C35.26 10.56 35.26 10.58 35.28 10.58C35.36 10.66 35.42 10.74 35.48 10.82C35.54 10.9 35.6 10.96 35.62 11.04C35.66 11.12 35.66 11.2 35.68 11.3C35.7 11.4 35.74 11.5 35.74 11.62C35.74 11.64 35.76 11.66 35.76 11.68V17.54H35.74Z" fill="#4864E1"/>
</svg>
