<svg width="40" height="40" viewBox="0 0 40 40" fill="none" xmlns="http://www.w3.org/2000/svg">
<path d="M17.9833 25.2831C17.6499 25.2831 17.3333 25.1498 17.0999 24.9165L13.0666 20.8831C12.5833 20.3998 12.5833 19.5998 13.0666 19.1165C13.5499 18.6331 14.3499 18.6331 14.8333 19.1165L17.9833 22.2665L25.1499 15.0998C25.6333 14.6165 26.4333 14.6165 26.9166 15.0998C27.3999 15.5831 27.3999 16.3831 26.9166 16.8665L18.8666 24.9165C18.6333 25.1498 18.3166 25.2831 17.9833 25.2831Z" fill="#4864E1"/>
<path d="M20.0001 37.9168C18.9501 37.9168 17.9001 37.5668 17.0835 36.8668L14.4501 34.6002C14.1835 34.3668 13.5168 34.1335 13.1668 34.1335H10.3001C7.83346 34.1335 5.83346 32.1335 5.83346 29.6668V26.8168C5.83346 26.4668 5.60013 25.8168 5.3668 25.5502L3.1168 22.9002C1.75013 21.2835 1.75013 18.7335 3.1168 17.1168L5.3668 14.4668C5.60013 14.2002 5.83346 13.5502 5.83346 13.2002V10.3335C5.83346 7.86683 7.83346 5.86683 10.3001 5.86683H13.1835C13.5335 5.86683 14.2001 5.61683 14.4668 5.40016L17.1001 3.1335C18.7335 1.7335 21.2835 1.7335 22.9168 3.1335L25.5501 5.40016C25.8168 5.6335 26.4835 5.86683 26.8335 5.86683H29.6668C32.1335 5.86683 34.1335 7.86683 34.1335 10.3335V13.1668C34.1335 13.5168 34.3835 14.1835 34.6168 14.4502L36.8835 17.0835C38.2835 18.7168 38.2835 21.2668 36.8835 22.9002L34.6168 25.5335C34.3835 25.8002 34.1335 26.4668 34.1335 26.8168V29.6502C34.1335 32.1168 32.1335 34.1168 29.6668 34.1168H26.8335C26.4835 34.1168 25.8168 34.3668 25.5501 34.5835L22.9168 36.8502C22.1001 37.5668 21.0501 37.9168 20.0001 37.9168ZM10.3001 8.36683C9.2168 8.36683 8.33346 9.25016 8.33346 10.3335V13.1835C8.33346 14.1335 7.88346 15.3502 7.2668 16.0668L5.0168 18.7168C4.43346 19.4002 4.43346 20.5835 5.0168 21.2668L7.2668 23.9168C7.88346 24.6502 8.33346 25.8502 8.33346 26.8002V29.6502C8.33346 30.7335 9.2168 31.6168 10.3001 31.6168H13.1835C14.1501 31.6168 15.3668 32.0668 16.1001 32.7002L18.7335 34.9668C19.4168 35.5502 20.6168 35.5502 21.3001 34.9668L23.9335 32.7002C24.6668 32.0835 25.8835 31.6168 26.8501 31.6168H29.6835C30.7668 31.6168 31.6501 30.7335 31.6501 29.6502V26.8168C31.6501 25.8502 32.1001 24.6335 32.7335 23.9002L35.0001 21.2668C35.5835 20.5835 35.5835 19.3835 35.0001 18.7002L32.7335 16.0668C32.1001 15.3335 31.6501 14.1168 31.6501 13.1502V10.3335C31.6501 9.25016 30.7668 8.36683 29.6835 8.36683H26.8501C25.8835 8.36683 24.6668 7.91683 23.9335 7.2835L21.3001 5.01683C20.6168 4.4335 19.4168 4.4335 18.7335 5.01683L16.1001 7.30016C15.3668 7.91683 14.1335 8.36683 13.1835 8.36683H10.3001Z" fill="#4864E1"/>
</svg>
